<svg version="1.1" id="Layer_1" xmlns="http://www.w3.org/2000/svg" xmlns:xlink="http://www.w3.org/1999/xlink" x="0px" y="0px"
	 width="100%" viewBox="0 0 1254 1254" enable-background="new 0 0 1254 1254" xml:space="preserve">
<path fill="#030E1E" opacity="1.000000" stroke="none" 
	d="
M204.477951,518.928101 
	C204.422638,517.897339 204.367340,516.866516 204.732620,515.287598 
	C205.393967,513.639404 205.844467,512.539429 205.845261,511.439209 
	C205.878265,465.223999 205.882523,419.008728 205.809525,372.793610 
	C205.807480,371.505249 204.924347,370.218292 204.452042,368.930664 
	C202.632278,321.937988 217.409531,280.523834 247.398178,244.683105 
	C275.768799,210.776154 311.606964,188.792770 355.354858,180.581482 
	C363.170624,179.114502 371.195068,178.759537 379.877136,178.262848 
	C382.445496,178.752777 384.259949,178.974289 386.074371,178.974472 
	C548.132019,178.991684 710.189697,178.994965 872.247375,178.955948 
	C874.158691,178.955490 876.069885,178.393478 877.981140,178.093582 
	C904.605164,178.831375 929.488525,186.111374 952.612854,199.008560 
	C1005.383423,228.440353 1038.222412,272.548828 1049.398071,332.269348 
	C1050.191528,336.509155 1050.528442,340.834381 1050.782471,345.880859 
	C1050.362305,348.121460 1050.128174,349.601074 1050.128052,351.080658 
	C1050.112671,523.629272 1050.112061,696.177917 1050.151489,868.726501 
	C1050.151855,870.483032 1050.690430,872.239502 1050.977783,873.995972 
	C1049.228394,899.110474 1042.167358,922.768066 1029.904175,944.616821 
	C998.124451,1001.237488 949.908386,1034.045654 885.448120,1042.705322 
	C881.992737,1043.169434 878.470276,1043.133789 874.231079,1042.957886 
	C871.514954,1042.417725 869.546814,1042.105103 867.578613,1042.104126 
	C812.593384,1042.077881 757.608154,1042.083008 702.622925,1042.083496 
	C600.317078,1042.084229 498.011230,1042.076904 395.705475,1042.151489 
	C393.789337,1042.152832 391.873932,1043.127686 389.958191,1043.648315 
	C388.590363,1043.673706 387.222565,1043.699097 385.320862,1043.297729 
	C382.520172,1042.929077 380.253357,1042.987061 377.986511,1043.045166 
	C349.988220,1041.899414 323.946991,1033.663696 299.925476,1019.732971 
	C246.172150,988.559937 214.700714,941.946106 205.519272,880.416931 
	C205.005234,876.971985 204.972382,873.455139 205.050018,869.213440 
	C205.545578,867.151306 205.847488,865.847595 205.847763,864.543823 
	C205.871536,750.801697 205.877319,637.059509 205.816284,523.317444 
	C205.815491,521.854065 204.943359,520.391174 204.477951,518.928101 
M883.337219,568.137634 
	C882.372986,569.255859 881.408691,570.374023 879.893860,571.851318 
	C870.868530,580.246277 862.124634,588.970093 852.768250,596.978333 
	C815.282959,629.062012 773.560425,654.431519 728.247253,673.789246 
	C683.057495,693.094299 636.240540,706.211243 586.811646,708.040039 
	C542.636108,709.674377 500.829742,701.184387 463.568146,676.265564 
	C436.132355,657.917847 417.888000,632.838806 411.655487,599.902344 
	C406.281738,571.504089 411.150757,544.236389 421.494751,517.719849 
	C436.812775,478.452484 460.754547,444.763123 489.845184,414.706299 
	C543.795044,358.964600 607.837646,318.423340 680.015015,290.554047 
	C713.501343,277.624268 747.757629,267.378448 783.677612,263.757202 
	C791.756409,262.942749 799.866760,262.441711 807.962585,261.796387 
	C784.452209,259.333069 761.016052,259.811005 737.712891,263.378326 
	C669.805298,273.773834 605.966492,296.050354 546.264893,329.976593 
	C490.368469,361.740479 441.061188,401.456726 401.318542,452.366608 
	C377.883057,482.387146 358.361969,514.634521 347.956299,551.646729 
	C337.790894,587.804382 339.333252,623.266235 356.468353,657.178162 
	C374.466675,692.798340 404.097534,715.628906 440.008240,731.146851 
	C443.759033,732.767700 447.891937,734.477600 451.853363,734.491516 
	C510.183197,734.696350 568.514038,734.640198 626.844604,734.577332 
	C631.976196,734.571777 637.485352,735.205322 642.170471,733.622314 
	C658.886658,727.974182 675.666443,722.279419 691.801819,715.190186 
	C744.178162,692.178101 792.298889,662.327881 834.546570,623.488525 
	C851.614136,607.797852 867.391663,590.880127 881.814453,571.934021 
	C882.643677,570.734192 883.472961,569.534363 884.750427,568.060242 
	C884.743103,567.819885 884.735779,567.579590 884.728394,567.339233 
	C884.470276,567.542236 884.212158,567.745178 883.337219,568.137634 
M799.480408,558.979492 
	C828.120178,528.644226 852.634949,495.399445 870.749268,457.667999 
	C883.119568,431.901154 893.249329,405.418945 896.615479,376.747498 
	C900.956787,339.770203 887.407104,318.233582 852.098511,306.804840 
	C825.951782,298.341614 799.173035,298.469025 772.443054,302.659424 
	C721.254333,310.684235 674.562256,330.309998 631.632202,359.100372 
	C571.986084,399.101105 524.710999,450.059540 494.541901,515.750122 
	C481.979584,543.103577 474.208649,571.801575 476.174500,602.358704 
	C476.868896,613.151917 479.431366,623.494080 485.032501,633.359131 
	C514.995361,578.195374 558.196167,535.077148 603.209595,493.311005 
	C600.112915,487.853607 597.056641,482.520111 594.054382,477.156342 
	C592.299194,474.020538 592.225464,470.939545 595.496338,468.832336 
	C598.638062,466.808411 601.064026,468.398376 603.232727,470.973114 
	C606.956909,475.394470 610.849976,479.673492 614.845581,484.209137 
	C621.685181,478.423676 628.221191,472.895050 634.747192,467.374908 
	C631.814880,462.183441 629.142273,457.395447 626.413330,452.639771 
	C624.515991,449.333313 624.295654,446.159271 627.747437,443.885834 
	C630.958801,441.770660 633.300659,443.693817 635.419983,446.184631 
	C638.850769,450.216797 642.412415,454.137604 646.039185,458.241638 
	C653.063904,452.797058 659.738892,447.623535 666.695129,442.232025 
	C663.776917,436.957642 660.918518,431.910095 658.179443,426.798553 
	C656.375732,423.432434 656.620605,420.253113 660.040588,418.071014 
	C663.273987,416.008057 665.959412,417.078705 668.274109,419.978180 
	C671.777710,424.366943 675.446411,428.623871 679.067139,432.963409 
	C686.150635,427.975281 692.788147,423.301208 699.504028,418.571991 
	C696.935669,413.745514 694.541443,409.179749 692.083191,404.648712 
	C690.293640,401.350098 689.893799,398.203247 693.465393,395.917603 
	C696.927917,393.701691 699.348389,395.612549 701.494751,398.372711 
	C704.643005,402.421234 707.906921,406.379791 711.176392,410.444794 
	C721.162720,404.319214 730.755127,398.353027 740.426636,392.517853 
	C773.584412,372.512268 808.158936,355.456543 844.941528,343.163666 
	C852.816162,340.531921 861.063721,339.016235 869.139465,336.986389 
	C869.273743,337.468353 869.408020,337.950317 869.542297,338.432281 
	C817.188293,360.932953 770.941833,393.216339 725.598511,427.467438 
	C729.722351,434.719879 733.561401,441.534973 737.467834,448.311279 
	C739.119141,451.175842 739.827820,454.147064 736.968628,456.412292 
	C733.894958,458.847382 731.474670,456.847565 729.288025,454.449890 
	C724.041138,448.696381 718.717590,443.012848 713.204346,437.062988 
	C706.680908,442.236511 700.459229,447.170654 694.071594,452.236420 
	C697.991699,458.515900 701.687134,464.425690 705.372009,470.342102 
	C707.310730,473.454865 708.087646,476.757996 704.841248,479.297455 
	C701.373230,482.010162 698.803528,479.751556 696.358215,477.072296 
	C691.587402,471.845093 686.639771,466.779205 681.681763,461.558472 
	C674.895996,467.056061 668.617371,472.142761 662.295593,477.264404 
	C666.330139,483.549316 670.029846,489.278748 673.692444,495.031860 
	C675.646362,498.100952 676.485596,501.394653 673.302551,504.006470 
	C670.030273,506.691467 667.156799,504.977844 664.572266,502.355194 
	C659.691650,497.402649 654.726013,492.533844 649.653564,487.488770 
	C643.385803,492.602081 637.263855,497.596405 631.050110,502.665649 
	C635.409424,509.225372 639.428528,515.339905 643.522461,521.403870 
	C645.420715,524.215637 646.928772,527.226135 643.793335,529.841187 
	C640.481689,532.603210 637.737244,530.497375 635.116516,528.020752 
	C629.720825,522.921631 624.168945,517.987854 618.656860,512.963745 
	C571.534851,552.674500 530.464844,596.826965 499.222229,650.066284 
	C500.812286,651.210388 502.253052,652.296204 503.742249,653.311035 
	C521.398621,665.342712 541.361938,669.847839 562.278625,670.824646 
	C602.965149,672.724548 641.136230,662.226440 677.991333,646.238892 
	C724.521423,626.054504 763.877502,595.689270 799.480408,558.979492 
M514.500000,761.071960 
	C499.835724,761.075378 485.168976,761.229919 470.508820,760.985901 
	C466.372681,760.917053 464.448700,762.080200 463.172211,766.190247 
	C447.342529,817.157715 431.311798,868.062805 415.343903,918.987366 
	C412.688477,927.455994 410.085815,935.941101 407.406372,944.587769 
	C426.450256,944.587769 444.913605,944.587769 463.551422,944.587769 
	C464.164551,942.727234 464.759338,941.018860 465.291870,939.291321 
	C470.634247,921.960083 475.919006,904.610718 481.379974,887.316956 
	C481.885162,885.717041 483.454620,883.274109 484.593933,883.237854 
	C494.688873,882.917114 504.798309,883.051514 514.954468,883.051514 
	C520.538574,902.259705 526.089722,920.939087 531.324036,939.706848 
	C532.382874,943.503235 533.701355,945.118896 537.984314,944.966309 
	C548.802734,944.580994 559.643372,944.818298 570.475159,944.811218 
	C577.751709,944.806519 585.028259,944.810364 592.862549,944.810364 
	C586.349304,922.654724 580.041443,901.197571 573.679565,879.556824 
	C576.227112,879.031860 578.336914,878.615784 580.438477,878.161194 
	C601.653137,873.572083 615.534729,860.647827 622.557800,840.386475 
	C627.511963,826.094177 631.933777,811.616272 636.523438,797.198975 
	C641.104431,782.808777 635.197632,769.628357 621.038147,764.390808 
	C615.387390,762.300537 609.034729,761.297791 602.985901,761.231384 
	C573.826843,760.911255 544.662476,761.079346 514.500000,761.071960 
M816.771057,849.262329 
	C825.908630,820.082520 835.046204,790.902649 844.329285,761.258179 
	C842.334900,761.142700 840.892395,760.986206 839.449890,760.986755 
	C824.120728,760.992371 808.789551,761.166321 793.463928,760.945740 
	C789.641785,760.890808 788.028809,762.076538 786.901428,765.698853 
	C773.394592,809.096130 759.736572,852.446411 746.088013,895.799438 
	C743.702026,903.378113 740.136658,905.955322 732.130371,905.975464 
	C719.467224,906.007385 706.804016,905.956116 694.140808,905.972412 
	C687.765808,905.980591 686.295654,904.085327 688.231750,898.101624 
	C690.573608,890.863953 692.967468,883.643066 695.542725,875.793396 
	C677.978699,875.793396 661.183655,875.737122 644.391296,875.924805 
	C643.313965,875.936890 641.682190,877.649780 641.282654,878.886292 
	C638.060608,888.856689 634.864624,898.846008 632.113953,908.953003 
	C630.997437,913.055237 630.181763,917.556763 630.652283,921.715698 
	C632.245544,935.798523 643.645203,944.821594 659.716248,944.897644 
	C688.874573,945.035583 718.034973,945.071045 747.192688,944.872986 
	C770.724365,944.713196 791.311157,929.419800 798.451599,907.135742 
	C804.545105,888.118713 810.499084,869.057007 816.771057,849.262329 
z"/>
<path fill="#2D2E35" opacity="1.000000" stroke="none" 
	d="
M1051.107178,873.610718 
	C1050.690430,872.239502 1050.151855,870.483032 1050.151489,868.726501 
	C1050.112061,696.177917 1050.112671,523.629272 1050.128052,351.080658 
	C1050.128174,349.601074 1050.362305,348.121460 1050.743774,346.318909 
	C1051.295166,350.306244 1051.846802,354.616425 1051.847900,358.926758 
	C1051.890991,525.702881 1051.888916,692.479065 1051.856079,859.255188 
	C1051.855225,863.911987 1051.452148,868.568665 1051.107178,873.610718 
z"/>
<path fill="#232835" opacity="1.000000" stroke="none" 
	d="
M390.416748,1043.763794 
	C391.873932,1043.127686 393.789337,1042.152832 395.705475,1042.151489 
	C498.011230,1042.076904 600.317078,1042.084229 702.622925,1042.083496 
	C757.608154,1042.083008 812.593384,1042.077881 867.578613,1042.104126 
	C869.546814,1042.105103 871.514954,1042.417725 873.774902,1042.892334 
	C871.765015,1043.428467 869.463318,1043.856934 867.161499,1043.857300 
	C708.399414,1043.886719 549.637329,1043.881470 390.416748,1043.763794 
z"/>
<path fill="#2D323D" opacity="1.000000" stroke="none" 
	d="
M204.342697,519.383667 
	C204.943359,520.391174 205.815491,521.854065 205.816284,523.317444 
	C205.877319,637.059509 205.871536,750.801697 205.847763,864.543823 
	C205.847488,865.847595 205.545578,867.151306 205.091721,868.757141 
	C204.569733,866.762939 204.139999,864.466675 204.139984,862.170410 
	C204.139252,748.059998 204.175369,633.949646 204.342697,519.383667 
z"/>
<path fill="#000009" opacity="1.000000" stroke="none" 
	d="
M877.523499,177.991699 
	C876.069885,178.393478 874.158691,178.955490 872.247375,178.955948 
	C710.189697,178.994965 548.132019,178.991684 386.074371,178.974472 
	C384.259949,178.974289 382.445496,178.752777 380.325714,178.354965 
	C382.511353,177.988464 385.002350,177.825882 387.493347,177.825562 
	C548.519714,177.804642 709.546082,177.796478 870.572449,177.792175 
	C872.736938,177.792130 874.901367,177.855865 877.523499,177.991699 
z"/>
<path fill="#2D323D" opacity="1.000000" stroke="none" 
	d="
M204.318542,369.386566 
	C204.924347,370.218292 205.807480,371.505249 205.809525,372.793610 
	C205.882523,419.008728 205.878265,465.223999 205.845261,511.439209 
	C205.844467,512.539429 205.393967,513.639404 204.815033,514.907593 
	C204.373688,514.090515 204.180420,513.105286 204.180237,512.120056 
	C204.171341,464.694183 204.179123,417.268341 204.318542,369.386566 
z"/>
<path fill="#232835" opacity="1.000000" stroke="none" 
	d="
M378.345825,1043.189209 
	C380.253357,1042.987061 382.520172,1042.929077 384.921692,1043.196533 
	C382.939270,1043.459106 380.822174,1043.396118 378.345825,1043.189209 
z"/>
<path fill="#FCFCFC" opacity="1.000000" stroke="none" 
	d="
M799.234375,559.233887 
	C763.877502,595.689270 724.521423,626.054504 677.991333,646.238892 
	C641.136230,662.226440 602.965149,672.724548 562.278625,670.824646 
	C541.361938,669.847839 521.398621,665.342712 503.742249,653.311035 
	C502.253052,652.296204 500.812286,651.210388 499.222229,650.066284 
	C530.464844,596.826965 571.534851,552.674500 618.656860,512.963745 
	C624.168945,517.987854 629.720825,522.921631 635.116516,528.020752 
	C637.737244,530.497375 640.481689,532.603210 643.793335,529.841187 
	C646.928772,527.226135 645.420715,524.215637 643.522461,521.403870 
	C639.428528,515.339905 635.409424,509.225372 631.050110,502.665649 
	C637.263855,497.596405 643.385803,492.602081 649.653564,487.488770 
	C654.726013,492.533844 659.691650,497.402649 664.572266,502.355194 
	C667.156799,504.977844 670.030273,506.691467 673.302551,504.006470 
	C676.485596,501.394653 675.646362,498.100952 673.692444,495.031860 
	C670.029846,489.278748 666.330139,483.549316 662.295593,477.264404 
	C668.617371,472.142761 674.895996,467.056061 681.681763,461.558472 
	C686.639771,466.779205 691.587402,471.845093 696.358215,477.072296 
	C698.803528,479.751556 701.373230,482.010162 704.841248,479.297455 
	C708.087646,476.757996 707.310730,473.454865 705.372009,470.342102 
	C701.687134,464.425690 697.991699,458.515900 694.071594,452.236420 
	C700.459229,447.170654 706.680908,442.236511 713.204346,437.062988 
	C718.717590,443.012848 724.041138,448.696381 729.288025,454.449890 
	C731.474670,456.847565 733.894958,458.847382 736.968628,456.412292 
	C739.827820,454.147064 739.119141,451.175842 737.467834,448.311279 
	C733.561401,441.534973 729.722351,434.719879 725.598511,427.467438 
	C770.941833,393.216339 817.188293,360.932953 869.542297,338.432281 
	C869.408020,337.950317 869.273743,337.468353 869.139465,336.986389 
	C861.063721,339.016235 852.816162,340.531921 844.941528,343.163666 
	C808.158936,355.456543 773.584412,372.512268 740.426636,392.517853 
	C730.755127,398.353027 721.162720,404.319214 711.176392,410.444794 
	C707.906921,406.379791 704.643005,402.421234 701.494751,398.372711 
	C699.348389,395.612549 696.927917,393.701691 693.465393,395.917603 
	C689.893799,398.203247 690.293640,401.350098 692.083191,404.648712 
	C694.541443,409.179749 696.935669,413.745514 699.504028,418.571991 
	C692.788147,423.301208 686.150635,427.975281 679.067139,432.963409 
	C675.446411,428.623871 671.777710,424.366943 668.274109,419.978180 
	C665.959412,417.078705 663.273987,416.008057 660.040588,418.071014 
	C656.620605,420.253113 656.375732,423.432434 658.179443,426.798553 
	C660.918518,431.910095 663.776917,436.957642 666.695129,442.232025 
	C659.738892,447.623535 653.063904,452.797058 646.039185,458.241638 
	C642.412415,454.137604 638.850769,450.216797 635.419983,446.184631 
	C633.300659,443.693817 630.958801,441.770660 627.747437,443.885834 
	C624.295654,446.159271 624.515991,449.333313 626.413330,452.639771 
	C629.142273,457.395447 631.814880,462.183441 634.747192,467.374908 
	C628.221191,472.895050 621.685181,478.423676 614.845581,484.209137 
	C610.849976,479.673492 606.956909,475.394470 603.232727,470.973114 
	C601.064026,468.398376 598.638062,466.808411 595.496338,468.832336 
	C592.225464,470.939545 592.299194,474.020538 594.054382,477.156342 
	C597.056641,482.520111 600.112915,487.853607 603.209595,493.311005 
	C558.196167,535.077148 514.995361,578.195374 485.032501,633.359131 
	C479.431366,623.494080 476.868896,613.151917 476.174500,602.358704 
	C474.208649,571.801575 481.979584,543.103577 494.541901,515.750122 
	C524.710999,450.059540 571.986084,399.101105 631.632202,359.100372 
	C674.562256,330.309998 721.254333,310.684235 772.443054,302.659424 
	C799.173035,298.469025 825.951782,298.341614 852.098511,306.804840 
	C887.407104,318.233582 900.956787,339.770203 896.615479,376.747498 
	C893.249329,405.418945 883.119568,431.901154 870.749268,457.667999 
	C852.634949,495.399445 828.120178,528.644226 799.234375,559.233887 
M809.512512,507.996857 
	C797.111633,520.326172 785.133789,533.118835 772.230652,544.898010 
	C733.509766,580.246216 691.178528,610.354309 642.890991,631.451965 
	C618.712952,642.015747 593.853638,650.458313 567.489685,653.467957 
	C557.507751,654.607544 547.420105,654.821228 537.135010,655.472473 
	C537.732971,655.713562 538.140015,655.958374 538.577942,656.042603 
	C561.294861,660.413452 584.007446,659.830566 606.606506,655.418579 
	C646.699768,647.591125 683.213989,631.011536 717.013794,608.500610 
	C779.491028,566.890137 825.310303,510.582764 859.959717,444.618591 
	C860.474426,443.638763 860.694092,442.503937 861.051392,441.441437 
	C845.308167,464.612305 828.531860,486.716583 809.512512,507.996857 
z"/>
<path fill="#E9192A" opacity="1.000000" stroke="none" 
	d="
M881.264893,572.251648 
	C867.391663,590.880127 851.614136,607.797852 834.546570,623.488525 
	C792.298889,662.327881 744.178162,692.178101 691.801819,715.190186 
	C675.666443,722.279419 658.886658,727.974182 642.170471,733.622314 
	C637.485352,735.205322 631.976196,734.571777 626.844604,734.577332 
	C568.514038,734.640198 510.183197,734.696350 451.853363,734.491516 
	C447.891937,734.477600 443.759033,732.767700 440.008240,731.146851 
	C404.097534,715.628906 374.466675,692.798340 356.468353,657.178162 
	C339.333252,623.266235 337.790894,587.804382 347.956299,551.646729 
	C358.361969,514.634521 377.883057,482.387146 401.318542,452.366608 
	C441.061188,401.456726 490.368469,361.740479 546.264893,329.976593 
	C605.966492,296.050354 669.805298,273.773834 737.712891,263.378326 
	C761.016052,259.811005 784.452209,259.333069 807.962585,261.796387 
	C799.866760,262.441711 791.756409,262.942749 783.677612,263.757202 
	C747.757629,267.378448 713.501343,277.624268 680.015015,290.554047 
	C607.837646,318.423340 543.795044,358.964600 489.845184,414.706299 
	C460.754547,444.763123 436.812775,478.452484 421.494751,517.719849 
	C411.150757,544.236389 406.281738,571.504089 411.655487,599.902344 
	C417.888000,632.838806 436.132355,657.917847 463.568146,676.265564 
	C500.829742,701.184387 542.636108,709.674377 586.811646,708.040039 
	C636.240540,706.211243 683.057495,693.094299 728.247253,673.789246 
	C773.560425,654.431519 815.282959,629.062012 852.768250,596.978333 
	C862.124634,588.970093 870.868530,580.246277 880.372498,571.863525 
	C880.989075,572.001099 881.127014,572.126343 881.264893,572.251648 
z"/>
<path fill="#FCFBFC" opacity="1.000000" stroke="none" 
	d="
M515.000000,761.073120 
	C544.662476,761.079346 573.826843,760.911255 602.985901,761.231384 
	C609.034729,761.297791 615.387390,762.300537 621.038147,764.390808 
	C635.197632,769.628357 641.104431,782.808777 636.523438,797.198975 
	C631.933777,811.616272 627.511963,826.094177 622.557800,840.386475 
	C615.534729,860.647827 601.653137,873.572083 580.438477,878.161194 
	C578.336914,878.615784 576.227112,879.031860 573.679565,879.556824 
	C580.041443,901.197571 586.349304,922.654724 592.862549,944.810364 
	C585.028259,944.810364 577.751709,944.806519 570.475159,944.811218 
	C559.643372,944.818298 548.802734,944.580994 537.984314,944.966309 
	C533.701355,945.118896 532.382874,943.503235 531.324036,939.706848 
	C526.089722,920.939087 520.538574,902.259705 514.954468,883.051514 
	C504.798309,883.051514 494.688873,882.917114 484.593933,883.237854 
	C483.454620,883.274109 481.885162,885.717041 481.379974,887.316956 
	C475.919006,904.610718 470.634247,921.960083 465.291870,939.291321 
	C464.759338,941.018860 464.164551,942.727234 463.551422,944.587769 
	C444.913605,944.587769 426.450256,944.587769 407.406372,944.587769 
	C410.085815,935.941101 412.688477,927.455994 415.343903,918.987366 
	C431.311798,868.062805 447.342529,817.157715 463.172211,766.190247 
	C464.448700,762.080200 466.372681,760.917053 470.508820,760.985901 
	C485.168976,761.229919 499.835724,761.075378 515.000000,761.073120 
M573.154541,817.722229 
	C574.078979,815.050842 575.056763,812.396484 575.916687,809.704529 
	C577.675354,804.199524 576.079956,801.455200 570.430481,801.408691 
	C550.611328,801.245667 530.789734,801.297852 510.970398,801.444824 
	C509.755676,801.453796 507.819489,802.747437 507.455170,803.851257 
	C502.977905,817.417725 498.731262,831.060242 494.396667,844.773071 
	C495.238647,844.968384 495.713959,845.174683 496.189514,845.175232 
	C516.010071,845.197571 535.831055,845.269531 555.651062,845.165955 
	C561.551147,845.135193 565.791321,841.513245 567.612183,835.637207 
	C569.384094,829.918945 571.154846,824.200317 573.154541,817.722229 
z"/>
<path fill="#E9192A" opacity="1.000000" stroke="none" 
	d="
M816.642944,849.638672 
	C810.499084,869.057007 804.545105,888.118713 798.451599,907.135742 
	C791.311157,929.419800 770.724365,944.713196 747.192688,944.872986 
	C718.034973,945.071045 688.874573,945.035583 659.716248,944.897644 
	C643.645203,944.821594 632.245544,935.798523 630.652283,921.715698 
	C630.181763,917.556763 630.997437,913.055237 632.113953,908.953003 
	C634.864624,898.846008 638.060608,888.856689 641.282654,878.886292 
	C641.682190,877.649780 643.313965,875.936890 644.391296,875.924805 
	C661.183655,875.737122 677.978699,875.793396 695.542725,875.793396 
	C692.967468,883.643066 690.573608,890.863953 688.231750,898.101624 
	C686.295654,904.085327 687.765808,905.980591 694.140808,905.972412 
	C706.804016,905.956116 719.467224,906.007385 732.130371,905.975464 
	C740.136658,905.955322 743.702026,903.378113 746.088013,895.799438 
	C759.736572,852.446411 773.394592,809.096130 786.901428,765.698853 
	C788.028809,762.076538 789.641785,760.890808 793.463928,760.945740 
	C808.789551,761.166321 824.120728,760.992371 839.449890,760.986755 
	C840.892395,760.986206 842.334900,761.142700 844.329285,761.258179 
	C835.046204,790.902649 825.908630,820.082520 816.642944,849.638672 
z"/>
<path fill="#E9192A" opacity="1.000000" stroke="none" 
	d="
M880.647827,571.684021 
	C881.408691,570.374023 882.372986,569.255859 883.733398,568.138794 
	C884.129639,568.140015 884.302185,568.334534 884.302246,568.334534 
	C883.472961,569.534363 882.643677,570.734192 881.539673,572.092834 
	C881.127014,572.126343 880.989075,572.001099 880.647827,571.684021 
z"/>
<path fill="#E9192A" opacity="1.000000" stroke="none" 
	d="
M884.041870,568.044067 
	C884.212158,567.745178 884.470276,567.542236 884.728394,567.339233 
	C884.735779,567.579590 884.743103,567.819885 884.526306,568.197388 
	C884.302185,568.334534 884.129639,568.140015 884.041870,568.044067 
z"/>
<path fill="#0A1422" opacity="1.000000" stroke="none" 
	d="
M809.751465,507.736206 
	C828.531860,486.716583 845.308167,464.612305 861.051392,441.441437 
	C860.694092,442.503937 860.474426,443.638763 859.959717,444.618591 
	C825.310303,510.582764 779.491028,566.890137 717.013794,608.500610 
	C683.213989,631.011536 646.699768,647.591125 606.606506,655.418579 
	C584.007446,659.830566 561.294861,660.413452 538.577942,656.042603 
	C538.140015,655.958374 537.732971,655.713562 537.135010,655.472473 
	C547.420105,654.821228 557.507751,654.607544 567.489685,653.467957 
	C593.853638,650.458313 618.712952,642.015747 642.890991,631.451965 
	C691.178528,610.354309 733.509766,580.246216 772.230652,544.898010 
	C785.133789,533.118835 797.111633,520.326172 809.751465,507.736206 
z"/>
<path fill="#071120" opacity="1.000000" stroke="none" 
	d="
M573.040283,818.102051 
	C571.154846,824.200317 569.384094,829.918945 567.612183,835.637207 
	C565.791321,841.513245 561.551147,845.135193 555.651062,845.165955 
	C535.831055,845.269531 516.010071,845.197571 496.189514,845.175232 
	C495.713959,845.174683 495.238647,844.968384 494.396667,844.773071 
	C498.731262,831.060242 502.977905,817.417725 507.455170,803.851257 
	C507.819489,802.747437 509.755676,801.453796 510.970398,801.444824 
	C530.789734,801.297852 550.611328,801.245667 570.430481,801.408691 
	C576.079956,801.455200 577.675354,804.199524 575.916687,809.704529 
	C575.056763,812.396484 574.078979,815.050842 573.040283,818.102051 
z"/>
</svg>